<svg width="21" height="15" viewBox="0 0 21 15" fill="none" xmlns="http://www.w3.org/2000/svg">
<rect width="21" height="15" rx="2" fill="#D9D9D9"/>
<path d="M10.4588 6.32812H8.59233C8.55824 6.08665 8.48864 5.87216 8.38352 5.68466C8.27841 5.49432 8.14347 5.33239 7.97869 5.19886C7.81392 5.06534 7.62358 4.96307 7.40767 4.89205C7.1946 4.82102 6.96307 4.78551 6.71307 4.78551C6.26136 4.78551 5.8679 4.89773 5.53267 5.12216C5.19744 5.34375 4.9375 5.66761 4.75284 6.09375C4.56818 6.51705 4.47585 7.03125 4.47585 7.63636C4.47585 8.25852 4.56818 8.78125 4.75284 9.20455C4.94034 9.62784 5.2017 9.94744 5.53693 10.1634C5.87216 10.3793 6.25994 10.4872 6.70028 10.4872C6.94744 10.4872 7.17614 10.4545 7.38636 10.3892C7.59943 10.3239 7.78835 10.2287 7.95312 10.1037C8.1179 9.97585 8.25426 9.82102 8.36222 9.6392C8.47301 9.45739 8.54972 9.25 8.59233 9.01705L10.4588 9.02557C10.4105 9.42614 10.2898 9.8125 10.0966 10.1847C9.90625 10.554 9.64915 10.8849 9.32528 11.1776C9.00426 11.4673 8.62074 11.6974 8.17472 11.8679C7.73153 12.0355 7.23011 12.1193 6.67045 12.1193C5.89205 12.1193 5.19602 11.9432 4.58239 11.5909C3.97159 11.2386 3.48864 10.7287 3.13352 10.0611C2.78125 9.39347 2.60511 8.58523 2.60511 7.63636C2.60511 6.68466 2.78409 5.875 3.14205 5.20739C3.5 4.53977 3.9858 4.03125 4.59943 3.68182C5.21307 3.32955 5.90341 3.15341 6.67045 3.15341C7.17614 3.15341 7.64489 3.22443 8.0767 3.36648C8.51136 3.50852 8.89631 3.71591 9.23153 3.98864C9.56676 4.25852 9.83949 4.58949 10.0497 4.98153C10.2628 5.37358 10.3991 5.82244 10.4588 6.32812ZM11.6882 12V10.9048L16.0433 4.79403H11.6797V3.27273H18.3615V4.3679L14.0021 10.4787H18.37V12H11.6882Z" fill="black"/>
</svg>
